# xmcd
#
# Track frame offsets: 
#        150
#        14800
#        31406
#        45308
#        59049
#        71909
#        90073
#        127994
#        154703
#        181956
#        194810
#        213133
#        252371
#        264583
#        277895
#
# Disc length: 3914 seconds
#
# Revision: 0
# Processed by: cddbd v1.5.2PL0 Copyright (c) Steve Scherf et al.
# Submitted via: ExactAudioCopy v0.95a4
#
DISCID=d50f480f
DTITLE=Marc Ford - Weary and Wired
DYEAR=2007
DGENRE=Blues
TTITLE0=Featherweight Dreamland
TTITLE1=Don't Come Around
TTITLE2=It'll Be Over Soon
TTITLE3=Dirty Girl
TTITLE4=The Other Side
TTITLE5=1000 Ways
TTITLE6=Smoke Signals
TTITLE7=Greazy Chicken
TTITLE8=CUrrents
TTITLE9=Just Take The Money
TTITLE10=Medicine Time
TTITLE11=The Same THing
TTITLE12=Running Man Blues
TTITLE13=Bye Bye Suzy
TTITLE14=The Big Callback
EXTD=
EXTT0=
EXTT1=
EXTT2=
EXTT3=
EXTT4=
EXTT5=
EXTT6=
EXTT7=
EXTT8=
EXTT9=
EXTT10=
EXTT11=
EXTT12=
EXTT13=
EXTT14=
PLAYORDER=
